<svg width="58" height="61" viewBox="0 0 58 61" fill="none" xmlns="http://www.w3.org/2000/svg">
<g clip-path="url(#clip0_10_1262)">
<rect width="58" height="61" rx="8" fill="url(#paint0_linear_10_1262)"/>
<rect width="58" height="61" rx="8" fill="url(#paint1_linear_10_1262)"/>
<rect x="1.5" y="1.5" width="55" height="58" rx="8" fill="black"/>
<path d="M42.125 23.1667C40.0104 23.1667 38.8291 25.2667 39.3104 26.8272L34.1333 32.0188C33.6958 31.8876 33.0541 31.8876 32.6166 32.0188L28.8979 28.3001C29.3937 26.7397 28.2125 24.6251 26.0833 24.6251C23.9687 24.6251 22.7729 26.7251 23.2687 28.3001L16.6187 34.9355C15.0583 34.4542 12.9583 35.6355 12.9583 37.7501C12.9583 39.3542 14.2708 40.6667 15.875 40.6667C17.9896 40.6667 19.1708 38.5667 18.6896 37.0063L25.325 30.3563C25.7625 30.4876 26.4041 30.4876 26.8416 30.3563L30.5604 34.0751C30.0646 35.6355 31.2458 37.7501 33.375 37.7501C35.4896 37.7501 36.6854 35.6501 36.1896 34.0751L41.3812 28.898C42.9416 29.3792 45.0416 28.198 45.0416 26.0834C45.0416 24.4792 43.7291 23.1667 42.125 23.1667Z" fill="#B00D0D"/>
<path d="M33.375 24.625L34.7458 21.6062L37.75 20.25L34.7458 18.8938L33.375 15.875L32.0333 18.8938L29 20.25L32.0333 21.6062L33.375 24.625ZM16.6041 27.5417L17.3333 24.625L20.25 23.8958L17.3333 23.1667L16.6041 20.25L15.875 23.1667L12.9583 23.8958L15.875 24.625L16.6041 27.5417Z" fill="#B00D0D"/>
</g>
<defs>
<linearGradient id="paint0_linear_10_1262" x1="63.3292" y1="52.7937" x2="-5.32925" y2="8.20633" gradientUnits="userSpaceOnUse">
<stop stop-color="#FF2929"/>
<stop offset="0.25" stop-color="#2934FF" stop-opacity="0"/>
</linearGradient>
<linearGradient id="paint1_linear_10_1262" x1="1.99958" y1="-1.67785" x2="56.0004" y2="62.6778" gradientUnits="userSpaceOnUse">
<stop stop-color="#FF2929"/>
<stop offset="0.25" stop-color="#2934FF" stop-opacity="0"/>
</linearGradient>
<clipPath id="clip0_10_1262">
<rect width="58" height="61" rx="8" fill="white"/>
</clipPath>
</defs>
</svg>
