<svg width="58" height="61" viewBox="0 0 58 61" fill="none" xmlns="http://www.w3.org/2000/svg">
<g clip-path="url(#clip0_10_1252)">
<rect width="58" height="61" rx="8" fill="url(#paint0_linear_10_1252)"/>
<rect width="58" height="61" rx="8" fill="url(#paint1_linear_10_1252)"/>
<rect x="1.5" y="1.5" width="55" height="58" rx="8" fill="black"/>
<path d="M42.125 29.3208C42.125 21.3146 35.9125 15.875 29 15.875C22.1604 15.875 15.875 21.1979 15.875 29.4083C15 29.9042 14.4167 30.8375 14.4167 31.9167V34.8333C14.4167 36.4375 15.7292 37.75 17.3334 37.75H18.7917V28.8542C18.7917 23.2104 23.3563 18.6458 29 18.6458C34.6438 18.6458 39.2084 23.2104 39.2084 28.8542V39.2083H27.5417V42.125H39.2084C40.8125 42.125 42.125 40.8125 42.125 39.2083V37.4292C42.9854 36.9771 43.5834 36.0875 43.5834 35.0375V31.6833C43.5834 30.6625 42.9854 29.7729 42.125 29.3208Z" fill="#B00D0D"/>
<path d="M24.625 31.9167C25.4304 31.9167 26.0834 31.2637 26.0834 30.4583C26.0834 29.6529 25.4304 29 24.625 29C23.8196 29 23.1667 29.6529 23.1667 30.4583C23.1667 31.2637 23.8196 31.9167 24.625 31.9167Z" fill="#B00D0D"/>
<path d="M33.375 31.9167C34.1804 31.9167 34.8334 31.2637 34.8334 30.4583C34.8334 29.6529 34.1804 29 33.375 29C32.5696 29 31.9167 29.6529 31.9167 30.4583C31.9167 31.2637 32.5696 31.9167 33.375 31.9167Z" fill="#B00D0D"/>
<path d="M37.75 27.5854C37.05 23.4292 33.4333 20.25 29.0729 20.25C24.6542 20.25 19.9 23.9104 20.2792 29.6562C23.8812 28.1833 26.5937 24.975 27.3667 21.0667C29.2771 24.9021 33.2 27.5417 37.75 27.5854Z" fill="#B00D0D"/>
</g>
<defs>
<linearGradient id="paint0_linear_10_1252" x1="63.3292" y1="52.7937" x2="-5.32925" y2="8.20633" gradientUnits="userSpaceOnUse">
<stop stop-color="#FF2929"/>
<stop offset="0.25" stop-color="#2934FF" stop-opacity="0"/>
</linearGradient>
<linearGradient id="paint1_linear_10_1252" x1="1.99958" y1="-1.67785" x2="56.0004" y2="62.6778" gradientUnits="userSpaceOnUse">
<stop stop-color="#FF2929"/>
<stop offset="0.25" stop-color="#2934FF" stop-opacity="0"/>
</linearGradient>
<clipPath id="clip0_10_1252">
<rect width="58" height="61" rx="8" fill="white"/>
</clipPath>
</defs>
</svg>
