<svg width="1284" height="1083" viewBox="0 0 1284 1083" fill="none" xmlns="http://www.w3.org/2000/svg">
<path d="M77.1818 1.87172H1.87172V91.7974M77.1818 1.87172V91.7974M77.1818 1.87172H152.489M1.87172 91.7974H77.1818M1.87172 91.7974V181.72M77.1818 91.7974H152.489M77.1818 91.7974V181.72M152.489 1.87172V91.7974M152.489 1.87172H227.799M152.489 91.7974H227.799M152.489 91.7974V181.72M77.1818 181.72H1.87172M77.1818 181.72H152.489M77.1818 181.72V271.646M1.87172 181.72V271.646M227.799 1.87172V91.7974M227.799 1.87172H303.11M227.799 91.7974H303.11M227.799 91.7974V181.72M152.489 181.72H227.799M152.489 181.72V271.646M303.11 1.87172V91.7974M303.11 1.87172H378.417M303.11 91.7974H378.417M303.11 91.7974V181.72M227.799 181.72H303.11M227.799 181.72V271.646M378.417 1.87172V91.7974M378.417 1.87172H453.727M378.417 91.7974H453.727M378.417 91.7974V181.72M303.11 181.72H378.417M303.11 181.72V271.646M453.727 1.87172V91.7974M453.727 1.87172H529.037M453.727 91.7974H529.037M453.727 91.7974V181.72M378.417 181.72H453.727M378.417 181.72V271.646M529.037 1.87172V91.7974M529.037 1.87172H604.345M529.037 91.7974H604.345M529.037 91.7974V181.72M453.727 181.72H529.037M453.727 181.72V271.646M604.345 1.87172V91.7974M604.345 1.87172H679.655M604.345 91.7974H679.655M604.345 91.7974V181.72M529.037 181.72H604.345M529.037 181.72V271.646M679.655 1.87172V91.7974M679.655 1.87172H754.965M679.655 91.7974H754.965M679.655 91.7974V181.72M604.345 181.72H679.655M604.345 181.72V271.646M754.965 1.87172V91.7974M754.965 1.87172H830.273M754.965 91.7974H830.273M754.965 91.7974V181.72M679.655 181.72H754.965M679.655 181.72V271.646M830.273 1.87172V91.7974M830.273 1.87172H905.583M830.273 91.7974H905.583M830.273 91.7974V181.72M754.965 181.72H830.273M754.965 181.72V271.646M905.583 1.87172V91.7974M905.583 1.87172H980.893M905.583 91.7974H980.893M905.583 91.7974V181.72M830.273 181.72H905.583M830.273 181.72V271.646M980.893 1.87172V91.7974M980.893 1.87172H1056.2M980.893 91.7974H1056.2M980.893 91.7974V181.72M905.583 181.72H980.893M905.583 181.72V271.646M1056.2 1.87172V91.7974M1056.2 1.87172H1131.51M1056.2 91.7974H1131.51M1056.2 91.7974V181.72M980.893 181.72H1056.2M980.893 181.72V271.646M1131.51 1.87172V91.7974M1131.51 1.87172H1206.82M1131.51 91.7974H1206.82M1131.51 91.7974V181.72M1056.2 181.72H1131.51M1056.2 181.72V271.646M1206.82 1.87172V91.7974M1206.82 1.87172H1282.13V91.7974M1206.82 91.7974H1282.13M1206.82 91.7974V181.72M1131.51 181.72H1206.82M1131.51 181.72V271.646M1282.13 91.7974V181.72M1206.82 181.72H1282.13M1206.82 181.72V271.646M1282.13 181.72V271.646M77.1818 271.646H1.87172M77.1818 271.646H152.489M77.1818 271.646V361.571M1.87172 271.646V361.571M152.489 271.646H227.799M152.489 271.646V361.571M227.799 271.646H303.11M227.799 271.646V361.571M303.11 271.646H378.417M303.11 271.646V361.571M378.417 271.646H453.727M378.417 271.646V361.571M453.727 271.646H529.037M453.727 271.646V361.571M529.037 271.646H604.345M529.037 271.646V361.571M604.345 271.646H679.655M604.345 271.646V361.571M679.655 271.646H754.965M679.655 271.646V361.571M754.965 271.646H830.273M754.965 271.646V361.571M830.273 271.646H905.583M830.273 271.646V361.571M905.583 271.646H980.893M905.583 271.646V361.571M980.893 271.646H1056.2M980.893 271.646V361.571M1056.2 271.646H1131.51M1056.2 271.646V361.571M1131.51 271.646H1206.82M1131.51 271.646V361.571M1206.82 271.646H1282.13M1206.82 271.646V361.571M1282.13 271.646V361.571M77.1818 361.571H1.87172M77.1818 361.571H152.489M77.1818 361.571V451.494M1.87172 361.571V451.494M152.489 361.571H227.799M152.489 361.571V451.494M227.799 361.571H303.11M227.799 361.571V451.494M303.11 361.571H378.417M303.11 361.571V451.494M378.417 361.571H453.727M378.417 361.571V451.494M453.727 361.571H529.037M453.727 361.571V451.494M529.037 361.571H604.345M529.037 361.571V451.494M604.345 361.571H679.655M604.345 361.571V451.494M679.655 361.571H754.965M679.655 361.571V451.494M754.965 361.571H830.273M754.965 361.571V451.494M830.273 361.571H905.583M830.273 361.571V451.494M905.583 361.571H980.893M905.583 361.571V451.494M980.893 361.571H1056.2M980.893 361.571V451.494M1056.2 361.571H1131.51M1056.2 361.571V451.494M1131.51 361.571H1206.82M1131.51 361.571V451.494M1206.82 361.571H1282.13M1206.82 361.571V451.494M1282.13 361.571V451.494M77.1818 451.494H1.87172M77.1818 451.494H152.489M77.1818 451.494V541.42M1.87172 451.494V541.42M152.489 451.494H227.799M152.489 451.494V541.42M227.799 451.494H303.11M227.799 451.494V541.42M303.11 451.494H378.417M303.11 451.494V541.42M378.417 451.494H453.727M378.417 451.494V541.42M453.727 451.494H529.037M453.727 451.494V541.42M529.037 451.494H604.345M529.037 451.494V541.42M604.345 451.494H679.655M604.345 451.494V541.42M679.655 451.494H754.965M679.655 451.494V541.42M754.965 451.494H830.273M754.965 451.494V541.42M830.273 451.494H905.583M830.273 451.494V541.42M905.583 451.494H980.893M905.583 451.494V541.42M980.893 451.494H1056.2M980.893 451.494V541.42M1056.2 451.494H1131.51M1056.2 451.494V541.42M1131.51 451.494H1206.82M1131.51 451.494V541.42M1206.82 451.494H1282.13M1206.82 451.494V541.42M1282.13 451.494V541.42M77.1818 541.42H1.87172M77.1818 541.42H152.489M77.1818 541.42V631.345M1.87172 541.42V631.345M152.489 541.42H227.799M152.489 541.42V631.345M227.799 541.42H303.11M227.799 541.42V631.345M303.11 541.42H378.417M303.11 541.42V631.345M378.417 541.42H453.727M378.417 541.42V631.345M453.727 541.42H529.037M453.727 541.42V631.345M529.037 541.42H604.345M529.037 541.42V631.345M604.345 541.42H679.655M604.345 541.42V631.345M679.655 541.42H754.965M679.655 541.42V631.345M754.965 541.42H830.273M754.965 541.42V631.345M830.273 541.42H905.583M830.273 541.42V631.345M905.583 541.42H980.893M905.583 541.42V631.345M980.893 541.42H1056.2M980.893 541.42V631.345M1056.2 541.42H1131.51M1056.2 541.42V631.345M1131.51 541.42H1206.82M1131.51 541.42V631.345M1206.82 541.42H1282.13M1206.82 541.42V631.345M1282.13 541.42V631.345M77.1818 631.345H1.87172M77.1818 631.345H152.489M77.1818 631.345V721.268M1.87172 631.345V721.268M152.489 631.345H227.799M152.489 631.345V721.268M227.799 631.345H303.11M227.799 631.345V721.268M303.11 631.345H378.417M303.11 631.345V721.268M378.417 631.345H453.727M378.417 631.345V721.268M453.727 631.345H529.037M453.727 631.345V721.268M529.037 631.345H604.345M529.037 631.345V721.268M604.345 631.345H679.655M604.345 631.345V721.268M679.655 631.345H754.965M679.655 631.345V721.268M754.965 631.345H830.273M754.965 631.345V721.268M830.273 631.345H905.583M830.273 631.345V721.268M905.583 631.345H980.893M905.583 631.345V721.268M980.893 631.345H1056.2M980.893 631.345V721.268M1056.2 631.345H1131.51M1056.2 631.345V721.268M1131.51 631.345H1206.82M1131.51 631.345V721.268M1206.82 631.345H1282.13M1206.82 631.345V721.268M1282.13 631.345V721.268M77.1818 721.268H1.87172M77.1818 721.268H152.489M77.1818 721.268V811.194M1.87172 721.268V811.194M152.489 721.268H227.799M152.489 721.268V811.194M227.799 721.268H303.11M227.799 721.268V811.194M303.11 721.268H378.417M303.11 721.268V811.194M378.417 721.268H453.727M378.417 721.268V811.194M453.727 721.268H529.037M453.727 721.268V811.194M529.037 721.268H604.345M529.037 721.268V811.194M604.345 721.268H679.655M604.345 721.268V811.194M679.655 721.268H754.965M679.655 721.268V811.194M754.965 721.268H830.273M754.965 721.268V811.194M830.273 721.268H905.583M830.273 721.268V811.194M905.583 721.268H980.893M905.583 721.268V811.194M980.893 721.268H1056.2M980.893 721.268V811.194M1056.2 721.268H1131.51M1056.2 721.268V811.194M1131.51 721.268H1206.82M1131.51 721.268V811.194M1206.82 721.268H1282.13M1206.82 721.268V811.194M1282.13 721.268V811.194M77.1818 811.194H1.87172M77.1818 811.194H152.489M77.1818 811.194V901.119M1.87172 811.194V901.119M152.489 811.194H227.799M152.489 811.194V901.119M227.799 811.194H303.11M227.799 811.194V901.119M303.11 811.194H378.417M303.11 811.194V901.119M378.417 811.194H453.727M378.417 811.194V901.119M453.727 811.194H529.037M453.727 811.194V901.119M529.037 811.194H604.345M529.037 811.194V901.119M604.345 811.194H679.655M604.345 811.194V901.119M679.655 811.194H754.965M679.655 811.194V901.119M754.965 811.194H830.273M754.965 811.194V901.119M830.273 811.194H905.583M830.273 811.194V901.119M905.583 811.194H980.893M905.583 811.194V901.119M980.893 811.194H1056.2M980.893 811.194V901.119M1056.2 811.194H1131.51M1056.2 811.194V901.119M1131.51 811.194H1206.82M1131.51 811.194V901.119M1206.82 811.194H1282.13M1206.82 811.194V901.119M1282.13 811.194V901.119M77.1818 901.119H1.87172M77.1818 901.119H152.489M77.1818 901.119V991.042M1.87172 901.119V991.042M152.489 901.119H227.799M152.489 901.119V991.042M227.799 901.119H303.11M227.799 901.119V991.042M303.11 901.119H378.417M303.11 901.119V991.042M378.417 901.119H453.727M378.417 901.119V991.042M453.727 901.119H529.037M453.727 901.119V991.042M529.037 901.119H604.345M529.037 901.119V991.042M604.345 901.119H679.655M604.345 901.119V991.042M679.655 901.119H754.965M679.655 901.119V991.042M754.965 901.119H830.273M754.965 901.119V991.042M830.273 901.119H905.583M830.273 901.119V991.042M905.583 901.119H980.893M905.583 901.119V991.042M980.893 901.119H1056.2M980.893 901.119V991.042M1056.2 901.119H1131.51M1056.2 901.119V991.042M1131.51 901.119H1206.82M1131.51 901.119V991.042M1206.82 901.119H1282.13M1206.82 901.119V991.042M1282.13 901.119V991.042M77.1818 991.042H1.87172M77.1818 991.042H152.489M77.1818 991.042V1080.97M1.87172 991.042V1080.97H77.1818M152.489 991.042H227.799M152.489 991.042V1080.97M227.799 991.042H303.11M227.799 991.042V1080.97M303.11 991.042H378.417M303.11 991.042V1080.97M378.417 991.042H453.727M378.417 991.042V1080.97M453.727 991.042H529.037M453.727 991.042V1080.97M529.037 991.042H604.345M529.037 991.042V1080.97M604.345 991.042H679.655M604.345 991.042V1080.97M679.655 991.042H754.965M679.655 991.042V1080.97M754.965 991.042H830.273M754.965 991.042V1080.97M830.273 991.042H905.583M830.273 991.042V1080.97M905.583 991.042H980.893M905.583 991.042V1080.97M980.893 991.042H1056.2M980.893 991.042V1080.97M1056.2 991.042H1131.51M1056.2 991.042V1080.97M1131.51 991.042H1206.82M1131.51 991.042V1080.97M1206.82 991.042H1282.13M1206.82 991.042V1080.97M1282.13 991.042V1080.97H1206.82M77.1818 1080.97H152.489M152.489 1080.97H227.799M227.799 1080.97H303.11M303.11 1080.97H378.417M378.417 1080.97H453.727M453.727 1080.97H529.037M529.037 1080.97H604.345M604.345 1080.97H679.655M679.655 1080.97H754.965M754.965 1080.97H830.273M830.273 1080.97H905.583M905.583 1080.97H980.893M980.893 1080.97H1056.2M1056.2 1080.97H1131.51M1131.51 1080.97H1206.82" stroke="url(#paint0_radial_4_16)" stroke-opacity="0.08" stroke-width="3.74269"/>
<defs>
<radialGradient id="paint0_radial_4_16" cx="0" cy="0" r="1" gradientUnits="userSpaceOnUse" gradientTransform="translate(642.324 570.293) rotate(90) scale(509.572 641.093)">
<stop stop-color="white"/>
<stop offset="1" stop-color="white" stop-opacity="0"/>
</radialGradient>
</defs>
</svg>
